 <svg id="fill-user" viewBox="0 0 16 16" xmlns="http://www.w3.org/2000/svg">
        <path opacity="0.4" d="M5.75 0.5C3.785 0.5 2.1875 2.0975 2.1875 4.0625C2.1875 5.99 3.695 7.55 5.66 7.6175C5.72 7.61 5.78 7.61 5.825 7.6175C5.84 7.6175 5.8475 7.6175 5.8625 7.6175C5.87 7.6175 5.87 7.6175 5.8775 7.6175C7.7975 7.55 9.305 5.99 9.3125 4.0625C9.3125 2.0975 7.715 0.5 5.75 0.5Z"/>
        <path d="M9.55997 9.6125C7.46747 8.2175 4.05497 8.2175 1.94747 9.6125C0.994971 10.25 0.469971 11.1125 0.469971 12.035C0.469971 12.9575 0.994971 13.8125 1.93997 14.4425C2.98997 15.1475 4.36997 15.5 5.74997 15.5C7.12997 15.5 8.50997 15.1475 9.55997 14.4425C10.505 13.805 11.03 12.95 11.03 12.02C11.0225 11.0975 10.505 10.2425 9.55997 9.6125Z"/>
        <path opacity="0.4" d="M13.9924 4.505C14.1124 5.96 13.0774 7.235 11.6449 7.4075C11.6374 7.4075 11.6374 7.4075 11.6299 7.4075H11.6074C11.5624 7.4075 11.5174 7.4075 11.4799 7.4225C10.7524 7.46 10.0849 7.2275 9.5824 6.8C10.3549 6.11 10.7974 5.075 10.7074 3.95C10.6549 3.3425 10.4449 2.7875 10.1299 2.315C10.4149 2.1725 10.7449 2.0825 11.0824 2.0525C12.5524 1.925 13.8649 3.02 13.9924 4.505Z"/>
        <path d="M15.4927 11.4425C15.4327 12.17 14.9677 12.8 14.1877 13.2275C13.4377 13.64 12.4927 13.835 11.5552 13.8125C12.0952 13.325 12.4102 12.7175 12.4702 12.0725C12.5452 11.1425 12.1027 10.25 11.2177 9.53751C10.7152 9.14001 10.1302 8.82501 9.49268 8.59251C11.1502 8.11251 13.2352 8.43501 14.5177 9.47001C15.2077 10.025 15.5602 10.7225 15.4927 11.4425Z"/>
    </svg>
